<svg width="108" height="20" viewBox="0 0 108 20" fill="none" xmlns="http://www.w3.org/2000/svg">
<path d="M34.8388 11.1982V19.7466H31.3364V12.3964C31.3364 9.12448 30.4839 8.22585 28.6406 8.22585C26.6129 8.22585 24.7465 10.507 24.7465 13.848V19.7466H21.2212V5.27653H24.7235C24.7235 5.27653 24.6774 8.75581 24.7696 8.54844C25.4378 7.09682 27.0737 5.06916 29.6083 5.06916C32.742 5.04612 34.8388 7.09682 34.8388 11.1982Z" fill="#5433FF"/>
<path d="M40.7605 7.74197C41.6361 6.19818 43.0877 5.0461 45.3458 5.0461C49.1015 5.0461 51.6592 8.34105 51.6592 12.5116C51.6592 16.6821 49.1015 19.977 45.3458 19.977C43.1568 19.977 41.6361 18.848 40.7605 17.2581C40.7144 17.166 40.6683 19.7466 40.6683 19.7466H37.166V0H40.6683C40.6914 0 40.7144 7.85718 40.7605 7.74197ZM48.1338 12.5116C48.1338 10.2074 46.9817 8.22584 44.5163 8.22584C42.2121 8.22584 40.6683 10.2074 40.6683 12.5116C40.6683 14.8157 42.2121 16.7973 44.5163 16.7973C46.9817 16.7973 48.1338 14.8157 48.1338 12.5116Z" fill="#5433FF"/>
<path d="M67.0741 12.5116C67.0741 16.636 64.3552 19.9771 59.8391 19.9771C55.3229 19.9771 52.604 16.636 52.604 12.5116C52.604 8.38717 55.3229 5.04614 59.8391 5.04614C64.3552 5.04614 67.0741 8.41021 67.0741 12.5116ZM63.5487 12.5116C63.5487 10.1614 62.2123 8.22588 59.816 8.22588C57.4197 8.22588 56.0833 10.1383 56.0833 12.5116C56.0833 14.8849 57.4197 16.7973 59.816 16.7973C62.2123 16.7973 63.5487 14.8849 63.5487 12.5116Z" fill="#5433FF"/>
<path d="M73.1798 11.2213C75.7605 11.083 78.0416 11.3365 78.0186 9.97704C77.9955 8.98625 77.6038 7.9033 75.1153 7.9033C72.6499 7.9033 72.0278 8.91712 71.8204 10.0922H68.3641C68.848 6.45168 71.9817 5.04614 75.2305 5.04614C78.5485 5.04614 81.5439 6.15214 81.5439 11.7282V19.7467H78.0416C78.0416 19.7467 78.0416 16.6821 77.9955 16.8204C77.166 18.825 75.5762 19.9771 72.9955 19.9771C70.2766 19.9771 67.9494 18.2259 67.9494 15.7835C67.9033 12.5807 70.2766 11.3826 73.1798 11.2213ZM73.7789 13.5485C72.2812 13.7098 71.4287 14.2858 71.4287 15.5761C71.4287 16.7743 72.5807 17.5577 74.1937 17.3273C76.06 17.0738 77.9725 15.8757 77.9955 12.2812C77.1891 13.2029 75.8527 13.3411 73.7789 13.5485Z" fill="#5433FF"/>
<path d="M87.627 8.1107C88.5026 6.10608 89.309 5.06921 92.8344 5.06921V8.61761C88.7561 8.34112 87.5809 9.79274 87.5809 13.4794V19.7697H84.0786V5.29963H87.5809C87.5579 5.27659 87.5809 8.17982 87.627 8.1107Z" fill="#5433FF"/>
<path d="M107.881 0V19.7466H104.379L104.286 17.2581C103.273 18.7558 101.89 19.977 99.7011 19.977C95.9453 19.977 93.3877 16.6821 93.3877 12.5116C93.3877 8.34105 95.9453 5.0461 99.7011 5.0461C101.959 5.0461 103.48 6.1521 104.286 7.74197C104.332 7.85718 104.379 0 104.379 0H107.881C107.881 0 107.858 0 107.881 0ZM104.355 12.5116C104.355 10.2074 102.812 8.22584 100.508 8.22584C98.0421 8.22584 96.89 10.2074 96.89 12.5116C96.89 14.8157 98.0421 16.7973 100.508 16.7973C102.812 16.7973 104.355 14.8157 104.355 12.5116Z" fill="#5433FF"/>
<path d="M9.65442 0.230469C3.61753 0.230469 0 4.65445 0 10.1153C0 15.5762 3.61753 20.0001 9.65442 20.0001C15.6913 20.0001 19.3088 15.5762 19.3088 10.1153C19.3088 4.65445 15.6913 0.230469 9.65442 0.230469ZM15.4379 10.0231L9.58529 15.8757C8.01847 17.4425 5.46085 17.4425 3.87098 15.8757C2.30416 14.3089 2.30416 11.7513 3.87098 10.1614L9.72355 4.30882C11.2904 2.742 13.848 2.742 15.4379 4.30882C17.0047 5.89869 17.0047 8.45631 15.4379 10.0231Z" fill="#5433FF"/>
</svg>
